:version 1.10
:name ASF
:units
  mass 1
  length 1
  angle deg
:documentation
  ASF file generated by Kaydara
:root
  axis xyz
  order  tx ty tz rx ry rz
  position 0 0 0
  orientation 0 0 0
:bonedata
  begin
    id 1
    name RightUpLegDummy
    direction -1 2.30186e-007 8.31532e-007
    length 4.46685
    axis 0 0 0 xyz
  end
  begin
    id 2
    name RightUpLeg
    direction -2.30187e-007 -1 1.24343e-010
    length 16.4045
    axis -3.49089 -0.000906625 0.000286804 xyz
    dof rx ry rz
  end
  begin
    id 3
    name RightLeg
    direction -2.30181e-007 -1 -4.17157e-009
    length 17.5097
    axis 3.68512 0.0193738 -0.131023 xyz
    dof rx ry rz
  end
  begin
    id 4
    name RightFoot
    direction 8.31421e-007 -4.51202e-011 1
    length 6.49508
    axis 4.81691e-005 -0.120479 -0.188788 xyz
    dof rx ry rz
  end
  begin
    id 5
    name RightToes
    direction 0.00124746 -0.014064 0.9999
    length 3.85082
    axis 0.000481921 0.542163 -0.142578 xyz
    dof rx ry rz
  end
  begin
    id 6
    name SpineDummy
    direction 0.0717043 0.9409 -0.331007
    length 10.0032
    axis 0 0 0 xyz
  end
  begin
    id 7
    name Spine
    direction 2.30186e-007 1 4.58806e-011
    length 9.84055
    axis -0.001389 0.000121418 2.40972e-006 xyz
    dof rx ry rz
  end
  begin
    id 8
    name Spine1
    direction 0 0 0
    length 0
    axis -0.001389 0.000121451 1.30017e-006 xyz
    dof rx ry rz
  end
  begin
    id 9
    name HEadDummy
    direction -0.00347485 0.950688 -0.310128
    length 8.00997
    axis -0.001389 0.000121451 1.30017e-006 xyz
  end
  begin
    id 10
    name HEad
    direction -0.0222688 0.980941 0.193023
    length 5.12695
    axis -0.001389 0.000121451 1.30017e-006 xyz
    dof rx ry rz
  end
  begin
    id 11
    name LeftShoulder1Dummy
    direction 0.988871 0.146793 -0.0242004
    length 3.5792
    axis -0.001389 0.000121451 1.30017e-006 xyz
  end
  begin
    id 12
    name LeftShoulder1
    direction 0.993832 0.108932 0.020779
    length 4.16823
    axis -0.001389 0.000121451 1.30017e-006 xyz
    dof rx ry rz
  end
  begin
    id 13
    name LeftArm
    direction 1 3.44807e-006 -8.31404e-007
    length 9.91437
    axis -23.1894 0.134784 0.967509 xyz
    dof rx ry rz
  end
  begin
    id 14
    name LeftForeArm
    direction 1 3.44842e-006 -8.31581e-007
    length 9.08575
    axis -9.91835 -0.06569 -0.177793 xyz
    dof rx ry rz
  end
  begin
    id 15
    name LeftHand
    direction 0.992938 -0.0411636 0.11126
    length 5.32135
    axis -0.00960232 -0.00340091 0.185173 xyz
    dof rx ry rz
  end
  begin
    id 16
    name RightShoulderDummy
    direction -0.988871 0.146793 -0.0241962
    length 3.5792
    axis -0.001389 0.000121451 1.30017e-006 xyz
  end
  begin
    id 17
    name RightShoulder
    direction -0.993832 0.108933 0.0207785
    length 4.16823
    axis 0.215806 0.000203643 -0.0068026 xyz
    dof rx ry rz
  end
  begin
    id 18
    name RightArm
    direction -1 3.90912e-006 8.31284e-007
    length 9.91437
    axis -23.2009 -0.134239 -0.964101 xyz
    dof rx ry rz
  end
  begin
    id 19
    name RightForeArm
    direction -1 3.90882e-006 8.31502e-007
    length 9.08575
    axis -9.92322 0.0658061 0.178867 xyz
    dof rx ry rz
  end
  begin
    id 20
    name RightHand
    direction -0.992843 -0.0414603 0.112003
    length 5.28593
    axis -0.00960638 0.00330671 -0.185228 xyz
    dof rx ry rz
  end
  begin
    id 21
    name LeftUpLegDummy
    direction 1 -2.30186e-007 -8.31532e-007
    length 4.46685
    axis 0 0 0 xyz
  end
  begin
    id 22
    name LeftUpLeg
    direction -2.30187e-007 -1 6.00931e-010
    length 16.4045
    axis -3.48766 0.00143442 -0.000524262 xyz
    dof rx ry rz
  end
  begin
    id 23
    name LeftLeg
    direction -2.30187e-007 -1 1.6669e-009
    length 17.5097
    axis 3.68178 -0.00654042 -0.000285133 xyz
    dof rx ry rz
  end
  begin
    id 24
    name LeftFoot
    direction 8.31532e-007 -4.54478e-011 1
    length 6.49508
    axis 1.87233e-006 4.66016e-005 -8.6538e-006 xyz
    dof rx ry rz
  end
  begin
    id 25
    name LeftToes
    direction 0.00818058 -0.00485161 0.999955
    length 3.85048
    axis 1.06247e-005 4.65869e-005 -8.65513e-006 xyz
    dof rx ry rz
  end
:hierarchy
  begin
    root RightUpLegDummy SpineDummy LeftUpLegDummy
    RightUpLegDummy RightUpLeg
    RightUpLeg RightLeg
    RightLeg RightFoot
    RightFoot RightToes
    SpineDummy Spine
    Spine Spine1
    Spine1 HEadDummy LeftShoulder1Dummy RightShoulderDummy
    HEadDummy HEad
    LeftShoulder1Dummy LeftShoulder1
    LeftShoulder1 LeftArm
    LeftArm LeftForeArm
    LeftForeArm LeftHand
    RightShoulderDummy RightShoulder
    RightShoulder RightArm
    RightArm RightForeArm
    RightForeArm RightHand
    LeftUpLegDummy LeftUpLeg
    LeftUpLeg LeftLeg
    LeftLeg LeftFoot
    LeftFoot LeftToes
  end

:SAMPLES-PER-SECOND 30
:FULLY-SPECIFIED
:DEGREES
41
root  -67.7025 33.8845 37.9466 11.9702 79.6531 12.9271
RightUpLeg  7.96133 -17.8192 -10.8356
RightLeg  9.24161 2.23872 0.219245
RightFoot  -1.68982 -0.0066622 -0.0388159
RightToes  -36.081 -0.165723 -0.270997
Spine  3.52084 -2.08326 -0.445922
Spine1  6.77587 -4.06326 -1.11982
HEad  11.6595 31.4503 -8.78728
LeftShoulder1  0 -2.42657e-020 -4.95415e-022
LeftArm  -33.3063 13.0681 -84.6717
LeftForeArm  41.5515 -45.06 -10.1763
LeftHand  0.991059 -7.41012 -15.5993
RightShoulder  0 2.42657e-020 1.07489e-018
RightArm  -42.998 -33.6596 86.6434
RightForeArm  2.38577 77.7406 54.1497
RightHand  2.48327 13.3504 21.3641
LeftUpLeg  -2.61911 13.1357 3.96661
LeftLeg  3.76343 -7.62929 -0.0112705
LeftFoot  12.1626 0.176239 -1.65412
LeftToes  -20.1332 2.34596e-006 -6.06653e-008
42
root  -67.7069 33.876 38.0163 12.7487 80.2618 13.7906
RightUpLeg  8.18338 -18.3972 -10.8794
RightLeg  9.34632 2.30194 0.229639
RightFoot  -1.88493 -0.00688419 -0.0409413
RightToes  -36.344 -0.16599 -0.270852
Spine  3.48243 -2.12734 -0.377102
Spine1  6.70062 -4.15294 -0.987147
HEad  12.0248 31.6607 -8.78096
LeftShoulder1  0 -2.42657e-020 -4.95415e-022
LeftArm  -34.2315 14.064 -83.927
LeftForeArm  40.7393 -47.6341 -11.1538
LeftHand  0.939223 -7.04523 -15.5535
RightShoulder  0 2.42657e-020 1.07489e-018
RightArm  -43.2222 -33.7779 86.7271
RightForeArm  3.49715 77.8748 55.0755
RightHand  2.46446 13.2012 21.4409
LeftUpLeg  -2.60131 12.5451 4.01712
LeftLeg  3.63931 -7.66892 0.00525149
LeftFoot  12.3224 0.181548 -1.68167
LeftToes  -20.3479 2.34596e-006 -6.06653e-008
43
root  -67.7084 33.8706 38.0868 13.8013 80.8575 14.925
RightUpLeg  8.41753 -18.6992 -10.8512
RightLeg  9.50294 1.96627 0.201781
RightFoot  -2.14156 -0.00752202 -0.0370416
RightToes  -35.9816 -0.16646 -0.270868
Spine  3.45047 -2.12184 -0.260723
Spine1  6.63602 -4.15476 -0.736966
HEad  12.0959 31.4603 -9.23836
LeftShoulder1  0 -2.42657e-020 -4.95415e-022
LeftArm  -35.0527 14.8416 -83.155
LeftForeArm  40.4697 -49.7064 -12.0161
LeftHand  0.912132 -6.90189 -15.4244
RightShoulder  0 2.42657e-020 1.07489e-018
RightArm  -43.331 -33.8839 86.633
RightForeArm  4.29661 78.0088 56.0346
RightHand  2.42269 13.15 21.1711
LeftUpLeg  -2.54802 11.8221 4.03357
LeftLeg  3.43812 -7.60008 0.0318328
LeftFoot  12.5409 0.186013 -1.69261
LeftToes  -20.2201 2.34596e-006 -6.06653e-008
44
root  -67.7098 33.8696 38.1261 15.4374 81.5152 16.7093
RightUpLeg  8.7608 -19.3503 -11.0626
RightLeg  9.57954 2.01648 0.209618
RightFoot  -2.27736 -0.00759375 -0.0425632
RightToes  -36.0099 -0.167111 -0.271033
Spine  3.46907 -2.20021 -0.238404
Spine1  6.68047 -4.30327 -0.71443
HEad  11.9147 31.4039 -9.45936
LeftShoulder1  0 -2.42657e-020 -4.95415e-022
LeftArm  -35.9498 15.4303 -81.9486
LeftForeArm  40.2266 -51.7882 -12.9633
LeftHand  0.879687 -6.64173 -15.4591
RightShoulder  0 2.42657e-020 1.07489e-018
RightArm  -43.3922 -33.8534 86.8544
RightForeArm  3.72922 77.9306 55.4674
RightHand  2.43032 13.1281 21.2696
LeftUpLeg  -2.5046 10.9822 3.94475
LeftLeg  3.33039 -7.46616 0.0452792
LeftFoot  12.7609 0.188813 -1.6884
LeftToes  -20.2619 2.34596e-006 -6.06653e-008
45
root  -67.6946 33.8659 38.1206 16.6233 81.8658 17.9202
RightUpLeg  8.90876 -19.7779 -11.2645
RightLeg  9.63215 2.13327 0.223654
RightFoot  -2.38236 -0.00753235 -0.0507108
RightToes  -36.0485 -0.167924 -0.271335
Spine  3.42106 -2.08581 -0.136571
Spine1  6.59009 -4.08333 -0.497899
HEad  12.0339 30.9899 -9.55845
LeftShoulder1  0 -2.42657e-020 -4.95415e-022
LeftArm  -36.637 15.8891 -81.0451
LeftForeArm  40.2681 -53.52 -13.8238
LeftHand  0.848132 -6.40519 -15.4569
RightShoulder  0 2.42657e-020 1.07489e-018
RightArm  -43.6155 -34.0369 86.7597
RightForeArm  3.19362 77.8455 54.8684
RightHand  2.43777 12.2138 22.8767
LeftUpLeg  -2.49235 10.5957 3.82735
LeftLeg  3.23302 -7.39075 0.0573575
LeftFoot  12.8417 0.189004 -1.67938
LeftToes  -20.5419 2.34596e-006 -6.06653e-008
46
root  -67.684 33.8794 38.0904 18.7245 81.9124 20.0444
RightUpLeg  8.85735 -19.9697 -11.6654
RightLeg  9.89177 2.30268 0.251839
RightFoot  -2.49398 -0.00738573 -0.0606678
RightToes  -36.1178 -0.16888 -0.27176
Spine  3.36443 -1.96802 -0.102261
Spine1  6.47898 -3.85017 -0.418557
HEad  12.232 30.58 -9.53408
LeftShoulder1  0 -2.42657e-020 -4.95415e-022
LeftArm  -37.9428 16.3011 -80.1317
LeftForeArm  40.3931 -55.0325 -14.638
LeftHand  0.869423 -6.34317 -15.9809
RightShoulder  0 2.42657e-020 1.07489e-018
RightArm  -43.7273 -34.2848 86.7432
RightForeArm  2.7205 77.7806 54.4213
RightHand  2.43616 12.3138 22.6826
LeftUpLeg  -2.49587 10.2357 3.551
LeftLeg  3.21126 -7.5932 0.0618077
LeftFoot  13.175 0.203991 -1.76629
LeftToes  -20.7292 2.34596e-006 -6.06653e-008
47
root  -67.675 33.8726 38.0773 20.6402 82.3545 22.0173
RightUpLeg  9.07488 -20.5906 -11.959
RightLeg  9.97622 2.48519 0.275387
RightFoot  -2.63562 -0.00697319 -0.0751671
RightToes  -36.1631 -0.169957 -0.272295
Spine  3.33211 -1.99378 -0.0543859
Spine1  6.42837 -3.89663 -0.340965
HEad  12.0678 30.3825 -9.58352
LeftShoulder1  0 -2.42657e-020 -4.95415e-022
LeftArm  -39.3201 16.5126 -79.0454
LeftForeArm  40.135 -56.427 -15.4489
LeftHand  0.861068 -6.1833 -16.2287
RightShoulder  0 2.42657e-020 1.07489e-018
RightArm  -43.877 -34.4512 86.896
RightForeArm  1.92574 77.6499 53.5523
RightHand  2.50429 12.5815 22.8113
LeftUpLeg  -2.49529 11.1287 3.36167
LeftLeg  3.08725 -8.43854 0.0868965
LeftFoot  13.0752 0.223076 -1.94638
LeftToes  -20.0569 2.34596e-006 -6.06653e-008
48
root  -67.6651 33.8675 38.0577 22.1479 82.4818 23.4616
RightUpLeg  8.97947 -20.913 -12.1914
RightLeg  10.1905 2.67314 0.306212
RightFoot  -2.83486 -0.00637167 -0.0929425
RightToes  -36.1681 -0.171136 -0.272929
Spine  3.25839 -1.96272 0.0175122
Spine1  6.29087 -3.83374 -0.205214
HEad  11.8976 30.317 -9.6498
LeftShoulder1  0 -2.42657e-020 -4.95415e-022
LeftArm  -41.122 16.7523 -78.145
LeftForeArm  39.8344 -57.5817 -16.1697
LeftHand  0.859936 -6.04912 -16.5559
RightShoulder  0 2.42657e-020 1.07489e-018
RightArm  -43.8655 -34.6502 86.8854
RightForeArm  1.84396 77.6312 53.4315
RightHand  2.49146 12.6141 22.6424
LeftUpLeg  -2.54845 11.1224 3.185
LeftLeg  3.00036 -8.62254 0.101822
LeftFoot  13.1108 0.228941 -1.99207
LeftToes  -19.926 2.34596e-006 -6.06653e-008
49
root  -67.6712 33.869 38.0482 23.0218 82.5836 24.2745
RightUpLeg  8.88362 -20.938 -12.2201
RightLeg  10.2924 2.58383 0.300674
RightFoot  -2.92298 -0.00691307 -0.0932391
RightToes  -36.1422 -0.172397 -0.273649
Spine  3.21362 -1.96506 0.0458543
Spine1  6.2114 -3.8288 -0.172612
HEad  11.5986 30.3936 -9.50744
LeftShoulder1  0 -2.42657e-020 -4.95415e-022
LeftArm  -42.9809 16.8136 -76.9535
LeftForeArm  38.7329 -58.5598 -16.8202
LeftHand  0.790869 -5.53674 -16.6366
RightShoulder  0 2.42657e-020 1.07489e-018
RightArm  -43.7067 -34.5951 86.9786
RightForeArm  0.555308 77.42 52.106
RightHand  2.49029 12.7049 22.4757
LeftUpLeg  -2.62485 11.0435 3.08337
LeftLeg  2.93655 -8.65611 0.11183
LeftFoot  13.1933 0.232506 -2.01033
LeftToes  -19.9329 2.34596e-006 -6.06653e-008
50
root  -67.6787 33.8711 38.0365 23.6848 82.5956 24.8657
RightUpLeg  8.75976 -21.1083 -12.3181
RightLeg  10.4089 2.74237 0.324679
RightFoot  -3.03261 -0.00668125 -0.105738
RightToes  -35.945 -0.17372 -0.274442
Spine  3.16073 -1.91684 0.131936
Spine1  6.10627 -3.7377 0.0061642
HEad  11.5555 30.3061 -9.31913
LeftShoulder1  0 -2.42657e-020 -4.95415e-022
LeftArm  -44.7229 16.6527 -75.9704
LeftForeArm  37.0464 -58.8497 -17.0217
LeftHand  0.730215 -5.13393 -16.5717
RightShoulder  0 2.42657e-020 1.07489e-018
RightArm  -43.8025 -34.6872 86.8924
RightForeArm  1.31155 77.5634 52.9943
RightHand  2.28783 11.9128 22.0504
LeftUpLeg  -2.70663 10.8469 2.97107
LeftLeg  2.90002 -8.47466 0.114885
LeftFoot  13.2614 0.229755 -1.97625
LeftToes  -19.9235 2.34596e-006 -6.06653e-008
51
root  -67.6831 33.8748 38.0279 23.9041 82.5583 25.0408
RightUpLeg  8.72719 -21.2994 -12.4144
RightLeg  10.3855 2.98632 0.352196
RightFoot  -3.05252 -0.00626813 -0.121176
RightToes  -36.0366 -0.175085 -0.275295
Spine  3.09441 -1.8647 0.190845
Spine1  5.98518 -3.62955 0.109454
HEad  12.0261 30.2176 -8.88344
LeftShoulder1  0 -2.42657e-020 -4.95415e-022
LeftArm  -46.2808 16.0637 -74.7792
LeftForeArm  36.5293 -58.6376 -16.8755
LeftHand  0.69835 -5.03807 -16.1656
RightShoulder  0 2.42657e-020 1.07489e-018
RightArm  -43.7338 -34.8618 86.8438
RightForeArm  1.45879 77.5537 52.9376
RightHand  2.29288 12.1564 21.6685
LeftUpLeg  -2.70854 10.8363 2.90994
LeftLeg  2.79955 -8.43231 0.12906
LeftFoot  13.3343 0.230079 -1.97576
LeftToes  -19.9313 2.34596e-006 -6.06653e-008
